<mxfile host="app.diagrams.net" modified="2024-01-30T09:09:31.055Z" agent="Mozilla/5.0 (Windows NT 10.0; Win64; x64) AppleWebKit/537.36 (KHTML, like Gecko) Chrome/120.0.0.0 Safari/537.36" etag="UegU9ShkGluzm2-gmopk" version="23.0.2" type="github">
  <diagram name="第 1 页" id="4deAgnNsR5L0bUqhA9q-">
    <mxGraphModel dx="1290" dy="565" grid="1" gridSize="10" guides="1" tooltips="1" connect="1" arrows="1" fold="1" page="1" pageScale="1" pageWidth="827" pageHeight="1169" math="0" shadow="0">
      <root>
        <mxCell id="0" />
        <mxCell id="1" parent="0" />
        <mxCell id="asLfK5oWP9W_VeWv1E0I-20" value="" style="edgeStyle=orthogonalEdgeStyle;rounded=0;orthogonalLoop=1;jettySize=auto;html=1;" edge="1" parent="1" source="asLfK5oWP9W_VeWv1E0I-13" target="asLfK5oWP9W_VeWv1E0I-19">
          <mxGeometry relative="1" as="geometry" />
        </mxCell>
        <mxCell id="asLfK5oWP9W_VeWv1E0I-13" value="开始" style="rounded=1;whiteSpace=wrap;html=1;" vertex="1" parent="1">
          <mxGeometry x="794.99" y="20" width="70" height="30" as="geometry" />
        </mxCell>
        <mxCell id="asLfK5oWP9W_VeWv1E0I-27" value="" style="edgeStyle=orthogonalEdgeStyle;rounded=0;orthogonalLoop=1;jettySize=auto;html=1;" edge="1" parent="1" source="asLfK5oWP9W_VeWv1E0I-19" target="asLfK5oWP9W_VeWv1E0I-21">
          <mxGeometry relative="1" as="geometry" />
        </mxCell>
        <mxCell id="asLfK5oWP9W_VeWv1E0I-19" value="电表从掉电中恢复" style="rounded=0;whiteSpace=wrap;html=1;" vertex="1" parent="1">
          <mxGeometry x="776.87" y="80" width="106.25" height="30" as="geometry" />
        </mxCell>
        <mxCell id="asLfK5oWP9W_VeWv1E0I-21" value="掉电事件上报方式为主动上报" style="rhombus;whiteSpace=wrap;html=1;" vertex="1" parent="1">
          <mxGeometry x="740" y="130" width="179.99" height="100" as="geometry" />
        </mxCell>
        <mxCell id="asLfK5oWP9W_VeWv1E0I-22" value="" style="swimlane;startSize=0;" vertex="1" parent="1">
          <mxGeometry x="1030" y="70" width="200" height="180" as="geometry">
            <mxRectangle x="30" y="180" width="50" height="40" as="alternateBounds" />
          </mxGeometry>
        </mxCell>
        <mxCell id="asLfK5oWP9W_VeWv1E0I-47" value="《2020智能电能表标准技术研讨会资料》4.7 事件记录 第9点 ：“如果掉电事件的上报方式为主动上报，且其上报标识设置为事件发生恢复均上报，当上电时间大于1小时，要求电表在发生掉电与结束掉电时" style="shape=note;whiteSpace=wrap;html=1;backgroundOutline=1;darkOpacity=0.05;" vertex="1" parent="1">
          <mxGeometry x="460" y="20" width="180" height="160" as="geometry" />
        </mxCell>
      </root>
    </mxGraphModel>
  </diagram>
</mxfile>
